<?xml version="1.0" encoding="utf-8"?>
<!-- Generator: Adobe Illustrator 25.3.0, SVG Export Plug-In . SVG Version: 6.00 Build 0)  -->
<svg version="1.1" id="Layer_1" xmlns="http://www.w3.org/2000/svg" xmlns:xlink="http://www.w3.org/1999/xlink" x="0px" y="0px"
	 viewBox="0 0 493.1 370.2" style="enable-background:new 0 0 493.1 370.2;" xml:space="preserve">
<g>
	<path d="M485.8,43.5c-7.4-10.5-19.5-16.7-32.3-16.7H182c-6.9,0-12.4,5.6-12.4,12.4s5.6,12.4,12.4,12.4h271.5c4.8,0,9.2,2.3,12,6.2
		c2.8,3.9,3.5,8.8,1.9,13.4l-35.7,101.4c-2.4,6.9-9,11.6-16.4,11.6h-69.9H180.2h-4.5c-7.3,0-13.9-4.6-16.4-11.6L98.1,0H12.4
		C5.6,0,0,5.6,0,12.4s5.6,12.4,12.4,12.4h68.1l55.3,156c2,5.6,5.4,10.3,9.3,14.5c-6.3,4.2-12,9.2-16.4,15.6l-18.3,26.2
		c-7.1,10.1-7.9,23.2-2.2,34.1c5.7,10.9,16.9,17.7,29.2,17.7h263.2c6.9,0,12.4-5.6,12.4-12.4c0-6.9-5.6-12.4-12.4-12.4H137.4
		c-4.4,0-6.5-3-7.2-4.4c-0.7-1.3-2-4.7,0.5-8.4l18.3-26.2c7.1-10.1,18.7-16.2,31.1-16.2h165.2h69.9c17.9,0,33.9-11.3,39.9-28.2
		l35.7-101.4C495.1,67.4,493.2,53.9,485.8,43.5z"/>
	<path d="M379.3,301.9c-18.8,0-34.1,15.3-34.1,34.1s15.3,34.1,34.1,34.1s34.1-15.3,34.1-34.1S398.1,301.9,379.3,301.9z"/>
	<path d="M172.1,301.9c-18.8,0-34.1,15.3-34.1,34.1s15.3,34.1,34.1,34.1s34.1-15.3,34.1-34.1S191,301.9,172.1,301.9z"/>
</g>
</svg>
